<svg xmlns="http://www.w3.org/2000/svg" version="1.1" viewBox="0 0 1024 1024" width="1024" height="1024">
<path transform="translate(0)" d="m0 0h1024v1024h-1024z" fill="#1699A2"/>
<path transform="translate(0)" d="m0 0h1024v1024h-1024zm228 81-21 3-21 6-16 7-15 8-14 10-13 12-10 10-12 16-12 21-8 21-5 20-2 14-1 16v524l2 21 4 20 7 21 8 17 9 14 9 12 11 12 7 7 14 11 14 9 16 8 18 7 19 5 18 3 17 1h523l23-2 24-5 21-7 16-8 15-9 13-10 18-18 12-16 10-18 8-18 6-20 4-21 1-12v-533l-2-19-5-22-7-19-8-16-9-14-13-16-13-13-17-13-15-9-18-8-20-6-16-3-9-1z" fill="#194A52"/>
<path transform="translate(480,286)" d="m0 0h58v23l12 1 23 5 24 8 16 7 18 10 16 11 11 9 12 11 12 12 9 11 11 15 11 18 9 17 8 20 6 21 4 23 1 12v26l-2 23-4 20-5 16-8 21-11 23-12 19-10 13-11 13-15 15-14 11-15 11-21 12-23 10-22 7-25 5-17 2h-35l-24-3-22-5-21-7-18-8-17-9-16-11-16-13-15-14-12-14-12-16-8-13-12-23-10-25-7-26-3-19-1-11v-26l2-22 4-20 7-23 9-21 9-17 14-21 11-14 12-13 8-8 11-9 15-11 15-9 16-8 14-6 21-7 22-5 12-2z" fill="#1699A2"/>
<path transform="translate(480,286)" d="m0 0h58v23l12 1 23 5 24 8 16 7 18 10 16 11 11 9 12 11 12 12 9 11 11 15 11 18 9 17 8 20 6 21 4 23 1 12v26l-2 23-4 20-5 16-8 21-11 23-12 19-10 13-11 13-15 15-14 11-15 11-21 12-23 10-22 7-25 5-17 2h-35l-24-3-22-5-21-7-18-8-17-9-16-11-16-13-15-14-12-14-12-16-8-13-12-23-10-25-7-26-3-19-1-11v-26l2-22 4-20 7-23 9-21 9-17 14-21 11-14 12-13 8-8 11-9 15-11 15-9 16-8 14-6 21-7 22-5 12-2zm20 62-21 2-25 5-23 8-21 11-15 10-13 10-17 17-9 11-12 18-9 17-8 21-5 19-3 19-1 14v11l2 24 5 23 7 20 9 19 8 13 9 12 9 11 18 18 17 13 19 11 15 7 21 7 23 5 23 2 26-1 23-4 24-7 21-9 17-10 19-14 15-14 9-10 11-15 12-21 10-23 6-20 3-18 1-10v-28l-3-21-5-20-7-19-12-23-12-17-11-13-9-10-14-11-12-9-18-10-17-8-18-6-23-5-21-2z" fill="#FEFEF3"/>
<path transform="translate(744,136)" d="m0 0 4 1-6 10-5 15-1 6v14l3 12 7 13 9 10 13 11 11 9 9 10 8 13 6 14 4 14 1 7v19l-3 16-5 13-7 13-8 10-9 9-13 9-14 6-17 4-16 1-16-17-13-15-9-10-13-11-15-10-17-11-3-11-1-6v-17l4-16 7-11 3-1 4 16 6 10 7 4h6l2-1 1-3v-10l-5-26v-29l4-17 6-14 7-11 11-13 13-11 15-9 14-6z" fill="#FF5041"/>
<path transform="translate(786,409)" d="m0 0h13l11 1 6 3 4 5 2 7v187l-1 40-4 6-8 4-4 1h-28l-7-4-3-4-1-3-1-228 2-7 6-5 5-2z" fill="#FEFEF3"/>
<path transform="translate(213,408)" d="m0 0h26l10 4 3 4 1 8v218l-1 9-5 8-7 3h-32l-6-3-4-5-1-3v-230l4-8 7-4z" fill="#FEFEF3"/>
<path transform="translate(449,456)" d="m0 0 9 1 27 16 20 12 32 19 16 10 7 6 3 6v13l-4 10-8 7-28 17-44 28-19 12-7 3-5-1-6-7-2-7v-130l4-11z" fill="#FEFEF3"/>
<path transform="translate(472,210)" d="m0 0h34l59 1 6 4 2 4v37l-3 5-6 3-8 1h-101l-9-2-5-4-1-2v-38l4-6 4-2z" fill="#FEFEF3"/>
<path transform="translate(718,250)" d="m0 0 4 2 11 9 9 10 8 13 8 20 4 17v22l-4 16-7 14-8 10-5 5-7 6-16 1-16-17-7-8-3-14v-13l4-15 15-29 5-16 3-17z" fill="#FFBC33"/>
<path transform="translate(844,465)" d="m0 0h30l7 4 3 6v121l-3 8-5 4-3 1h-32l-4-4-1-2v-132l5-5z" fill="#FEFEF3"/>
<path transform="translate(144,465)" d="m0 0h31l5 3 3 4v130l-5 6-2 1h-29l-7-3-4-5-1-3v-122l4-8z" fill="#FEFEF3"/>
<path transform="translate(597,481)" d="m0 0 5 1 5 6 2 4 1 7v81l-3 7-4 3h-8l-6-5-1-3v-89l3-7z" fill="#FEFEF3"/>
<path transform="translate(501,508)" d="m0 0h9l5 3 2 4v43l-3 5-6 3h-6l-4-2-2-4v-48z" fill="#1699A2"/>
<path transform="translate(653,529)" d="m0 0h21l5 3 1 2v6l-4 5-2 1h-21l-7-3-3-7 2-4 3-2z" fill="#FEFEF3"/>
<path transform="translate(346,528)" d="m0 0h12l12 1 5 5v6l-5 5-9 1-17-1-4-4-1-7 4-5z" fill="#FEFEF3"/>
<path transform="translate(505,671)" d="m0 0h7l4 4 1 2v20l-5 5h-7l-4-3-1-7v-15l3-5z" fill="#FEFEF3"/>
<path transform="translate(506,374)" d="m0 0 7 1 3 3 1 2v19l-4 5h-8l-4-3-1-3v-17l3-5z" fill="#FEFEF3"/>
</svg>
